<svg id="Layer_1" data-name="Layer 1" xmlns="http://www.w3.org/2000/svg" viewBox="0 0 397.01 115.7"><defs><style>.cls-1{fill:#0d0000;}</style></defs><path class="cls-1" d="M90.89,80.83l-12-20.07H41.21l6.58-11.29H72.25L54.48,19.63,18.29,80.83H2.38L48.23,4.5a10.4,10.4,0,0,1,2.85-3.29A6.46,6.46,0,0,1,55,0a6.2,6.2,0,0,1,3.89,1.21,10.8,10.8,0,0,1,2.8,3.29l46,76.33Z"/><path class="cls-1" d="M140.25,58.68V45.19h32q7.35,0,11.46-4.17t4.11-11q0-6.9-4.11-11t-11.46-4H130.05v65.8H116.23V1.1h56.05a34.9,34.9,0,0,1,12.34,2,25.48,25.48,0,0,1,9.15,5.7,24.38,24.38,0,0,1,5.71,8.94,33.68,33.68,0,0,1,2,11.84,33.75,33.75,0,0,1-2,11.79,25.2,25.2,0,0,1-14.86,15.14,33.57,33.57,0,0,1-12.34,2.14Z"/><path class="cls-1" d="M211.32,80.83V1.1H282.5V15H225.14V66.9h57.47V80.83Zm24-34.66V34.44h44.2V46.17Z"/><path class="cls-1" d="M374.74,80.83,341.29,48.26,308.17,80.83h-18.1l42.77-41.46L293.14,1.1h19.2l30.38,29.5L372.66,1.1h18.1L351.05,39.37l43.22,41.46Z"/><path class="cls-1" d="M12.73,90.52a12.33,12.33,0,0,0-9,3.73,12.34,12.34,0,0,0-3.72,9,11.73,11.73,0,0,0,3.86,8.86A13,13,0,0,0,13,115.7,12.32,12.32,0,0,0,22,112a12.36,12.36,0,0,0,3.72-9,11.69,11.69,0,0,0-3.86-8.85A13,13,0,0,0,12.73,90.52Zm.3,21.21a8.66,8.66,0,0,1-6.27-2.48,8,8,0,0,1-2.57-6,8.65,8.65,0,0,1,2.49-6.27,8,8,0,0,1,6.05-2.6A8.66,8.66,0,0,1,19,96.84a8,8,0,0,1,2.58,6.06,8.67,8.67,0,0,1-2.48,6.24A8,8,0,0,1,13,111.73Z"/><path class="cls-1" d="M65.5,107.09a3.48,3.48,0,0,1-.37,1.57A8,8,0,0,1,64,110.32a4.26,4.26,0,0,1-1.69,1.17,7.51,7.51,0,0,1-5.43-.27,3.86,3.86,0,0,1-1.7-1.62,7.15,7.15,0,0,1-.83-2.51V91.16h-4.1v15.93a6.82,6.82,0,0,0,.22,1.65,16.48,16.48,0,0,0,.94,2.54,6.86,6.86,0,0,0,3.13,3.12,10.51,10.51,0,0,0,5.15,1.27,13.34,13.34,0,0,0,5.5-1.2,8.16,8.16,0,0,0,3.19-3,8,8,0,0,0,1.24-4.22l.06-16H65.5Z"/><polygon class="cls-1" points="98.14 94.92 104.64 94.92 104.64 115.09 108.82 115.09 108.82 94.92 115.31 94.92 115.31 91.16 98.14 91.16 98.14 94.92"/><path class="cls-1" d="M152.63,90.52,142.14,115.1h4.43l2.89-7h8.06l2.89,7h4.68L154.28,90.52Zm3.47,14.14h-5.43l2.67-7.1Z"/><path class="cls-1" d="M201.1,90.52a12.72,12.72,0,0,0-12.73,12.74,11.73,11.73,0,0,0,3.86,8.86,13,13,0,0,0,9.17,3.58A12.7,12.7,0,0,0,214.13,103a11.69,11.69,0,0,0-3.86-8.85A13,13,0,0,0,201.1,90.52Zm.3,21.21a8.64,8.64,0,0,1-6.27-2.48,8,8,0,0,1-2.58-6,8.65,8.65,0,0,1,2.5-6.27,8,8,0,0,1,6-2.6,8.64,8.64,0,0,1,6.25,2.5,8,8,0,0,1,2.59,6.06,8.64,8.64,0,0,1-2.49,6.24A8,8,0,0,1,201.4,111.73Z"/><path class="cls-1" d="M253.86,107.09a3.48,3.48,0,0,1-.37,1.57,7.59,7.59,0,0,1-1.14,1.66,4.26,4.26,0,0,1-1.69,1.17,7.5,7.5,0,0,1-5.43-.27,3.83,3.83,0,0,1-1.71-1.62,7.34,7.34,0,0,1-.82-2.51V91.16h-4.1v15.93a6.82,6.82,0,0,0,.22,1.65,16.19,16.19,0,0,0,.93,2.54,7,7,0,0,0,3.13,3.12,10.58,10.58,0,0,0,5.16,1.27,13.37,13.37,0,0,0,5.5-1.2,8.23,8.23,0,0,0,3.19-3,8,8,0,0,0,1.23-4.22l.06-16h-4.16Z"/><path class="cls-1" d="M293.91,90.52l-10.5,24.58h4.43l2.89-7h8.06l2.89,7h4.69L295.55,90.52Zm3.47,14.14H292l2.67-7.1Z"/><rect class="cls-1" x="340.16" y="91.16" width="4.04" height="23.93"/><path class="cls-1" d="M396.09,104.6a6.8,6.8,0,0,0-2.79-2.7l-5.7-2.09A2.62,2.62,0,0,1,386,97.34a3.58,3.58,0,0,1,.28-1.35,2.68,2.68,0,0,1,1.12-1.16,3.57,3.57,0,0,1,1.66-.36,4.12,4.12,0,0,1,2.41.75,3,3,0,0,1,1.33,1.85l.2.83,3.73-1.75-.19-.58a6.56,6.56,0,0,0-2-3,6.31,6.31,0,0,0-2.75-1.47c-.8-.16-1.29-.25-1.48-.27s-.48,0-.83,0a14.26,14.26,0,0,0-2.72.3,5.59,5.59,0,0,0-3,1.84,6.24,6.24,0,0,0-1.62,2.88,11.18,11.18,0,0,0-.23,1.79,5.89,5.89,0,0,0,1.2,3.63,8.13,8.13,0,0,0,3.13,2.48l3.84,1.35a12.11,12.11,0,0,1,1.45.71,5.43,5.43,0,0,1,.91.83,2.45,2.45,0,0,1,.46,1.68,3.62,3.62,0,0,1-.34,1.56,3,3,0,0,1-.89,1.14,4.08,4.08,0,0,1-1.19.64,4,4,0,0,1-4-.9,3.54,3.54,0,0,1-1.15-2.7v-1.12l-4,2,.15.55a13,13,0,0,0,1.09,2.73,6.56,6.56,0,0,0,1.87,2,9,9,0,0,0,4.72,1.29,8.91,8.91,0,0,0,5.24-1.66,7.41,7.41,0,0,0,2.61-5.69A7.25,7.25,0,0,0,396.09,104.6Z"/></svg>